<svg xmlns="http://www.w3.org/2000/svg" viewBox="0 0 900 650" role="img" aria-labelledby="t d"><title id="t">Students building an idea together</title><desc id="d">An editorial-style illustration of sticky notes, a prototype sketch, and a campus team around a table.</desc><rect width="900" height="650" rx="42" fill="#e7dcc7"/><path d="M66 120h250v160H66z" fill="#f7f0e2" stroke="#171813" stroke-width="5"/><path d="M104 161h174M104 198h130M104 235h155" stroke="#171813" stroke-width="8" stroke-linecap="round"/><path d="M392 85h188v150H392z" fill="#c64b35"/><path d="M422 122h128M422 158h90M422 194h112" stroke="#f7f0e2" stroke-width="9" stroke-linecap="round"/><path d="M612 330l170-108 60 95-170 108z" fill="#244c42"/><path d="M646 330l104-66" stroke="#e7dcc7" stroke-width="9" stroke-linecap="round"/><circle cx="192" cy="447" r="88" fill="#171813"/><circle cx="192" cy="418" r="28" fill="#f7f0e2"/><path d="M145 475c15-31 81-31 96 0" fill="#f7f0e2"/><circle cx="430" cy="464" r="78" fill="#c64b35"/><circle cx="430" cy="439" r="25" fill="#f7f0e2"/><path d="M389 489c12-26 70-26 83 0" fill="#f7f0e2"/><path d="M250 410c48-51 97-64 146-39M508 436c35-39 71-50 104-49" stroke="#171813" stroke-width="7" fill="none" stroke-linecap="round"/><circle cx="630" cy="467" r="28" fill="#f2b544"/><path d="M617 467h26M630 454v26" stroke="#171813" stroke-width="5" stroke-linecap="round"/><path d="M74 564c150-42 308-49 466-6 104 28 204 20 285-4" stroke="#171813" stroke-width="6" fill="none" stroke-linecap="round"/></svg>
